<?xml version="1.0" encoding="UTF-8"?>
<svg id="Layer_4" data-name="Layer 4" xmlns="http://www.w3.org/2000/svg" viewBox="0 0 50 50">
  <defs>
    <style>
      .cls-1 {
        fill: #3b2f2f;
      }
    </style>
  </defs>
  <path class="cls-1" d="M48.05,13.38c-.55-2.09-2.19-3.73-4.26-4.28-3.74-1.01-18.79-1.01-18.79-1.01,0,0-15.05,0-18.8,1.01-2.07.56-3.7,2.19-4.26,4.28-1,3.78-1,11.66-1,11.66,0,0,0,7.88,1,11.66.56,2.08,2.19,3.66,4.26,4.21,3.75,1.01,18.8,1.01,18.8,1.01,0,0,15.05,0,18.8-1.01,2.07-.56,3.7-2.13,4.26-4.21,1-3.78,1-11.66,1-11.66,0,0,0-7.88-1-11.66h0ZM20.07,32.19v-14.31l12.57,7.15-12.57,7.15Z"/>
</svg>