<?xml version="1.0" encoding="UTF-8"?>
<svg id="Layer_4" data-name="Layer 4" xmlns="http://www.w3.org/2000/svg" viewBox="0 0 50 50">
  <defs>
    <style>
      .cls-1 {
        fill: #3b2f2f;
      }
    </style>
  </defs>
  <path class="cls-1" d="M25.01,13.25c-6.5-.02-11.77,5.24-11.79,11.73-.02,6.5,5.24,11.77,11.73,11.79s11.77-5.24,11.79-11.73c.02-6.5-5.24-11.77-11.73-11.79ZM24.94,17.38c4.21-.02,7.64,3.39,7.66,7.6.02,4.21-3.39,7.64-7.6,7.66-4.21.02-7.64-3.39-7.66-7.6-.02-4.21,3.39-7.64,7.6-7.66ZM34.5,12.77c0-1.51,1.23-2.74,2.74-2.74s2.74,1.23,2.74,2.74-1.23,2.74-2.74,2.74-2.74-1.23-2.74-2.74ZM47.76,15.55c-.17-3.67-1.01-6.92-3.7-9.6-2.68-2.68-5.93-3.52-9.6-3.7-3.78-.21-15.13-.21-18.91,0-3.66.17-6.91,1.01-9.6,3.69-2.69,2.68-3.52,5.93-3.7,9.6-.21,3.78-.21,15.13,0,18.91.17,3.67,1.01,6.92,3.7,9.6,2.69,2.68,5.93,3.52,9.6,3.7,3.78.21,15.13.21,18.91,0,3.67-.17,6.92-1.01,9.6-3.7,2.68-2.68,3.52-5.93,3.7-9.6.21-3.78.21-15.12,0-18.9ZM42.87,38.51c-.8,2-2.34,3.55-4.36,4.36-3.02,1.2-10.18.92-13.51.92s-10.5.27-13.51-.92c-2-.8-3.55-2.34-4.36-4.36-1.2-3.02-.92-10.18-.92-13.51s-.27-10.5.92-13.51c.8-2,2.34-3.55,4.36-4.36,3.02-1.2,10.18-.92,13.51-.92s10.5-.27,13.51.92c2,.8,3.55,2.34,4.36,4.36,1.2,3.02.92,10.18.92,13.51s.28,10.5-.92,13.51Z"/>
</svg>