<?xml version="1.0" encoding="UTF-8"?>
<svg id="Layer_4" data-name="Layer 4" xmlns="http://www.w3.org/2000/svg" viewBox="0 0 50 50">
  <defs>
    <style>
      .cls-1 {
        fill: #3b2f2f;
      }
    </style>
  </defs>
  <path class="cls-1" d="M44.54,20.98c-3.84,0-7.59-1.19-10.71-3.42v15.59c0,2.89-.88,5.71-2.53,8.08-1.65,2.37-3.98,4.19-6.68,5.2-2.7,1.01-5.65,1.18-8.45.46-2.8-.72-5.31-2.26-7.22-4.43-1.9-2.17-3.08-4.89-3.4-7.76-.32-2.87.25-5.77,1.62-8.31,1.37-2.54,3.49-4.6,6.07-5.91,2.58-1.31,5.49-1.79,8.35-1.4v7.84c-1.31-.41-2.71-.4-4.01.03-1.3.44-2.43,1.27-3.23,2.38-.79,1.11-1.22,2.45-1.21,3.83,0,1.38.45,2.7,1.27,3.81s1.95,1.93,3.26,2.35c1.31.42,2.71.42,4.01,0,1.3-.43,2.44-1.26,3.25-2.36.8-1.11,1.24-2.45,1.24-3.82V2.67h7.68c0,.65.05,1.3.17,1.94.27,1.42.82,2.78,1.63,3.99.81,1.2,1.86,2.23,3.07,3.02,1.74,1.14,3.77,1.75,5.85,1.75v7.63h0Z"/>
</svg>