<?xml version="1.0" encoding="UTF-8"?>
<svg id="Layer_1" data-name="Layer 1" xmlns="http://www.w3.org/2000/svg" viewBox="0 0 38 38">
  <defs>
    <style>
      .cls-1 {
        fill: #3b2f2f;
      }
    </style>
  </defs>
  <path class="cls-1" d="M14.25,11.4c0-2.62,2.13-4.75,4.75-4.75s4.75,2.13,4.75,4.75-2.13,4.75-4.75,4.75-4.75-2.13-4.75-4.75ZM26.6,11.4c0-4.2-3.4-7.6-7.6-7.6s-7.6,3.4-7.6,7.6,3.4,7.6,7.6,7.6,7.6-3.4,7.6-7.6ZM8.55,32.3c0-4.2,3.4-7.6,7.6-7.6h5.7c4.2,0,7.6,3.4,7.6,7.6v.47c0,.79.64,1.43,1.43,1.43s1.42-.64,1.42-1.43v-.47c0-5.77-4.68-10.45-10.45-10.45h-5.7c-5.77,0-10.45,4.68-10.45,10.45v.47c0,.79.64,1.43,1.43,1.43s1.42-.64,1.42-1.43v-.47Z"/>
</svg>